<svg xmlns="http://www.w3.org/2000/svg" viewBox="0 0 1280 430">
<defs>
  <pattern id="grid" width="20" height="20" patternUnits="userSpaceOnUse">
    <path d="M20 0H0V20" fill="none" stroke="#171717" stroke-width="1"/>
  </pattern>
  <style>text{fill:#d8d8d8;font:13px Arial,sans-serif} .edge{fill:none;stroke:#444;stroke-width:2}</style>
</defs>
<rect width="1280" height="430" fill="#050505"/><rect width="1280" height="430" fill="url(#grid)"/>
<g class="edge">
<path d="M104 170C145 170 170 105 196 105"/><path d="M104 170C145 170 170 235 196 235"/>
<path d="M244 105C290 105 315 105 346 105"/><path d="M244 235C290 235 315 235 346 235"/>
<path d="M394 105C450 105 465 170 506 170"/><path d="M394 235C450 235 465 170 506 170"/>
<path d="M554 170H676"/><path d="M724 170C775 170 790 95 836 95"/>
<path d="M724 170C775 170 790 245 836 245"/><path d="M884 245C945 245 950 170 1006 170"/>
<path d="M1054 170C1100 170 1115 95 1166 95"/><path d="M1054 170C1100 170 1115 245 1166 245"/>
<path d="M554 335H676"/><path d="M724 335H836"/><path d="M884 335H1006"/>
</g>
<g><circle cx="80" cy="170" r="24" fill="#4285f4"/><text x="80" y="213" text-anchor="middle">Raw data</text></g>
<g><circle cx="220" cy="105" r="24" fill="#34a853"/><text x="220" y="148" text-anchor="middle">DAO</text></g>
<g><circle cx="220" cy="235" r="24" fill="#fbbc05"/><text x="220" y="278" text-anchor="middle">Cleaning</text></g>
<g><circle cx="370" cy="105" r="24" fill="#ea4335"/><text x="370" y="148" text-anchor="middle">Validation</text></g>
<g><circle cx="370" cy="235" r="24" fill="#4285f4"/><text x="370" y="278" text-anchor="middle">Preprocessing</text></g>
<g><circle cx="530" cy="170" r="24" fill="#34a853"/><text x="530" y="213" text-anchor="middle">Features</text></g>
<g><circle cx="700" cy="170" r="24" fill="#fbbc05"/><text x="700" y="213" text-anchor="middle">Decision Tree</text></g>
<g><circle cx="860" cy="95" r="24" fill="#ea4335"/><text x="860" y="138" text-anchor="middle">MLflow</text></g>
<g><circle cx="860" cy="245" r="24" fill="#4285f4"/><text x="860" y="288" text-anchor="middle">Artifacts</text></g>
<g><circle cx="1030" cy="170" r="24" fill="#34a853"/><text x="1030" y="213" text-anchor="middle">FastAPI</text></g>
<g><circle cx="1190" cy="95" r="24" fill="#fbbc05"/><text x="1190" y="138" text-anchor="middle">MongoDB</text></g>
<g><circle cx="1190" cy="245" r="24" fill="#ea4335"/><text x="1190" y="288" text-anchor="middle">Monitoring</text></g>
<g><circle cx="530" cy="335" r="24" fill="#4285f4"/><text x="530" y="378" text-anchor="middle">Tests</text></g>
<g><circle cx="700" cy="335" r="24" fill="#34a853"/><text x="700" y="378" text-anchor="middle">CI/CD</text></g>
<g><circle cx="860" cy="335" r="24" fill="#fbbc05"/><text x="860" y="378" text-anchor="middle">uv</text></g>
<g><circle cx="1030" cy="335" r="24" fill="#ea4335"/><text x="1030" y="378" text-anchor="middle">Docker</text></g>
<text x="40" y="45" font-size="24">FRAUD MLOPS / SYSTEM GRAPH</text>
</svg>